<svg xmlns="http://www.w3.org/2000/svg" width="181" height="150" viewBox="0 0 181 150" fill="none"><path fill-rule="evenodd" clip-rule="evenodd" d="M95.7919 47.5227L67.1617 55.2198V7.66119L95.8547 0L95.7919 47.5227Z" fill="#F37B20"></path><path fill-rule="evenodd" clip-rule="evenodd" d="M91.962 52.1895L118.547 67.5837V98.5252H91.962V52.1895Z" fill="#F37B20"></path><path d="M100.86 97.0506H107.918V83.2658L100.86 79.1835V97.0506ZM94.1595 72.0798V55.1479L89.1008 52.2255V72.0798H94.1595ZM110.851 64.8143V97.0506H117.085V68.42L110.851 64.8143ZM60.7038 58.5648L55.8873 59.8597V97.0506H60.7038V58.5648ZM63.6279 54.7432L81.5217 49.9325C82.302 49.7257 83.1003 50.1843 83.3156 50.9666C83.5219 51.7489 83.0644 52.5492 82.2841 52.765L63.6279 57.7735V97.0416H97.9356V76.6477C97.9356 76.396 97.9984 76.1442 98.1329 75.9104C98.5365 75.209 99.4335 74.9752 100.133 75.3799L107.927 79.8938V63.1238L97.0835 56.8474V73.5455C97.0835 74.3548 96.4287 75.0112 95.6215 75.0112H87.6388C86.8315 75.0112 86.1768 74.3548 86.1768 73.5455V49.6897C86.1768 48.8804 86.8315 48.224 87.6388 48.224C87.9527 48.224 88.2487 48.3229 88.4819 48.4938L94.1505 51.7759V19.8723L63.6279 28.073V54.7432ZM97.0835 20.4927V53.4664L107.927 59.7428V26.7691L97.0835 20.4927ZM36.962 99.991C36.1548 99.991 35.5 99.3345 35.5 98.5253C35.5 97.716 36.1548 97.0596 36.962 97.0596H52.9543V60.651L50.6044 61.2804C49.824 61.4872 49.0258 61.0286 48.8105 60.2463C48.6042 59.464 49.0616 58.6637 49.842 58.4479L52.9454 57.6117V38.7195C52.9454 37.9102 53.6001 37.2538 54.4074 37.2538C55.2146 37.2538 55.8694 37.9102 55.8694 38.7195V56.8294L60.6859 55.5345V26.949C60.6859 26.2386 61.1882 25.6541 61.8519 25.5102L95.2268 16.5452C95.6574 16.4283 96.0879 16.5182 96.4287 16.752L107.909 23.3971V19.1259C107.909 18.3166 108.564 17.6602 109.371 17.6602C110.179 17.6602 110.833 18.3166 110.833 19.1259V25.0966L119.561 30.1501C120.26 30.5548 120.502 31.445 120.099 32.1463C119.695 32.8477 118.807 33.0905 118.108 32.6858L110.833 28.4776V61.4512L119.256 66.3249C119.722 66.5947 119.991 67.0892 119.991 67.5928H120V97.0686H144.038C144.845 97.0686 145.5 97.725 145.5 98.5342C145.5 99.3435 144.845 99.9999 144.038 99.9999H118.529H109.371H99.3796H62.1659H54.4253H36.962V99.991Z" fill="#141414"></path><path d="M8.192 118.992C9.13067 118.992 9.86667 119.099 10.4 119.312C10.9547 119.504 11.52 119.792 12.096 120.176C12.5653 120.475 12.928 120.624 13.184 120.624C13.376 120.624 13.5253 120.517 13.632 120.304C13.7387 120.069 13.824 119.707 13.888 119.216H14.624C14.5173 120.453 14.464 122.629 14.464 125.744H13.728C13.6 124.016 13.0987 122.565 12.224 121.392C11.3707 120.197 10.1227 119.6 8.48 119.6C7.328 119.6 6.38933 119.952 5.664 120.656C4.93867 121.339 4.576 122.224 4.576 123.312C4.576 124.123 4.75733 124.827 5.12 125.424C5.504 126.021 5.984 126.533 6.56 126.96C7.136 127.387 7.95733 127.931 9.024 128.592L9.952 129.168C11.296 130 12.352 130.736 13.12 131.376C13.9093 131.995 14.5387 132.709 15.008 133.52C15.4773 134.331 15.712 135.28 15.712 136.368C15.712 138.309 15.072 139.813 13.792 140.88C12.512 141.925 10.8907 142.448 8.928 142.448C7.904 142.448 7.06133 142.341 6.4 142.128C5.76 141.915 5.14133 141.627 4.544 141.264C4.07467 140.965 3.712 140.816 3.456 140.816C3.264 140.816 3.11467 140.933 3.008 141.168C2.90133 141.381 2.816 141.733 2.752 142.224H2.016C2.10133 141.051 2.144 138.491 2.144 134.544H2.88C3.02933 136.699 3.56267 138.448 4.48 139.792C5.39733 141.136 6.80533 141.808 8.704 141.808C9.856 141.808 10.8373 141.456 11.648 140.752C12.4587 140.027 12.864 138.96 12.864 137.552C12.864 136.357 12.4587 135.344 11.648 134.512C10.8587 133.68 9.6 132.741 7.872 131.696C6.61333 130.928 5.58933 130.245 4.8 129.648C4.032 129.051 3.40267 128.336 2.912 127.504C2.42133 126.651 2.176 125.659 2.176 124.528C2.176 122.736 2.752 121.371 3.904 120.432C5.056 119.472 6.48533 118.992 8.192 118.992ZM24.6413 125.552H29.3773V126.192H24.6413V138.576C24.6413 139.536 24.8119 140.229 25.1533 140.656C25.5159 141.083 26.0279 141.296 26.6893 141.296C27.3506 141.296 27.9159 141.029 28.3853 140.496C28.8546 139.963 29.2493 139.088 29.5693 137.872L30.2093 138.032C29.6759 140.976 28.2893 142.448 26.0493 142.448C25.3239 142.448 24.7266 142.363 24.2573 142.192C23.7879 142.021 23.3719 141.755 23.0093 141.392C22.5399 140.923 22.2093 140.347 22.0173 139.664C21.8466 138.981 21.7613 138.064 21.7613 136.912V126.192H18.6893V125.552H21.7613V120.656C22.9559 120.613 23.9159 120.464 24.6413 120.208V125.552ZM46.6097 138.544C46.6097 139.525 46.7911 140.24 47.1537 140.688C47.5164 141.136 48.1458 141.36 49.0417 141.36V142.032C48.3804 141.968 47.7191 141.936 47.0577 141.936C45.7137 141.936 44.6044 142.085 43.7297 142.384V138.608C43.2177 139.931 42.4924 140.901 41.5538 141.52C40.6151 142.139 39.5911 142.448 38.4818 142.448C37.0311 142.448 35.9217 142.043 35.1537 141.232C34.7697 140.805 34.4924 140.261 34.3217 139.6C34.1724 138.939 34.0977 138.085 34.0977 137.04V129.008C34.0977 128.027 33.9164 127.312 33.5537 126.864C33.1911 126.416 32.5617 126.192 31.6657 126.192V125.52C32.3271 125.584 32.9884 125.616 33.6497 125.616C34.9937 125.616 36.1031 125.467 36.9777 125.168V137.744C36.9777 138.555 37.0204 139.216 37.1057 139.728C37.2124 140.219 37.4364 140.624 37.7778 140.944C38.1404 141.264 38.6844 141.424 39.4097 141.424C40.2204 141.424 40.9564 141.168 41.6178 140.656C42.2791 140.144 42.7911 139.451 43.1538 138.576C43.5377 137.68 43.7297 136.699 43.7297 135.632V129.008C43.7297 128.027 43.5484 127.312 43.1858 126.864C42.8231 126.416 42.1938 126.192 41.2977 126.192V125.52C41.9591 125.584 42.6204 125.616 43.2817 125.616C44.6258 125.616 45.7351 125.467 46.6097 125.168V138.544ZM66.5155 138.512C66.5155 139.493 66.6968 140.208 67.0595 140.656C67.4222 141.104 68.0515 141.328 68.9475 141.328V142C68.2862 141.936 67.6248 141.904 66.9635 141.904C65.6195 141.904 64.5102 142.053 63.6355 142.352V139.504C63.2515 140.464 62.6755 141.2 61.9075 141.712C61.1395 142.203 60.2008 142.448 59.0915 142.448C57.0435 142.448 55.4328 141.712 54.2595 140.24C53.1075 138.768 52.5422 136.613 52.5635 133.776C52.5635 131.92 52.8835 130.341 53.5235 129.04C54.1848 127.717 55.0595 126.725 56.1475 126.064C57.2568 125.403 58.4728 125.072 59.7955 125.072C60.6062 125.072 61.3422 125.232 62.0035 125.552C62.6862 125.851 63.2302 126.32 63.6355 126.96V120.752C63.6355 119.771 63.4542 119.056 63.0915 118.608C62.7288 118.16 62.0995 117.936 61.2035 117.936V117.264C61.8862 117.328 62.5475 117.36 63.1875 117.36C64.5315 117.36 65.6408 117.211 66.5155 116.912V138.512ZM60.0195 141.488C60.8515 141.488 61.5982 141.168 62.2595 140.528C62.9208 139.888 63.3795 138.981 63.6355 137.808V128.272C63.0595 126.629 61.8648 125.808 60.0515 125.808C58.7288 125.808 57.6622 126.491 56.8515 127.856C56.0408 129.2 55.6462 131.173 55.6675 133.776C55.6462 136.336 56.0088 138.267 56.7555 139.568C57.5022 140.848 58.5902 141.488 60.0195 141.488ZM75.4773 117.52C76.0319 117.52 76.5119 117.723 76.9173 118.128C77.3226 118.533 77.5253 119.013 77.5253 119.568C77.5253 120.123 77.3226 120.603 76.9173 121.008C76.5119 121.413 76.0319 121.616 75.4773 121.616C74.9226 121.616 74.4426 121.413 74.0373 121.008C73.6319 120.603 73.4293 120.123 73.4293 119.568C73.4293 119.013 73.6319 118.533 74.0373 118.128C74.4426 117.723 74.9226 117.52 75.4773 117.52ZM77.1413 139.024C77.1413 139.899 77.3226 140.507 77.6853 140.848C78.0479 141.168 78.6773 141.328 79.5733 141.328V142C77.6106 141.915 76.3199 141.872 75.7013 141.872C75.0826 141.872 73.7919 141.915 71.8293 142V141.328C72.7253 141.328 73.3546 141.168 73.7173 140.848C74.0799 140.507 74.2613 139.899 74.2613 139.024V129.008C74.2613 128.027 74.0799 127.312 73.7173 126.864C73.3546 126.416 72.7253 126.192 71.8293 126.192V125.52C72.5119 125.584 73.1733 125.616 73.8133 125.616C75.1573 125.616 76.2666 125.467 77.1413 125.168V139.024ZM90.3243 125.072C92.5003 125.072 94.2496 125.797 95.5723 127.248C96.9163 128.677 97.5883 130.853 97.5883 133.776C97.5883 136.699 96.9163 138.875 95.5723 140.304C94.2496 141.733 92.5003 142.448 90.3243 142.448C88.1483 142.448 86.3883 141.733 85.0443 140.304C83.7216 138.875 83.0603 136.699 83.0603 133.776C83.0603 130.853 83.7216 128.677 85.0443 127.248C86.3883 125.797 88.1483 125.072 90.3243 125.072ZM90.3243 125.712C89.0443 125.712 88.0309 126.373 87.2843 127.696C86.5376 128.997 86.1643 131.024 86.1643 133.776C86.1643 136.528 86.5376 138.555 87.2843 139.856C88.0309 141.157 89.0443 141.808 90.3243 141.808C91.6043 141.808 92.6176 141.157 93.3643 139.856C94.1109 138.555 94.4843 136.528 94.4843 133.776C94.4843 131.024 94.1109 128.997 93.3643 127.696C92.6176 126.373 91.6043 125.712 90.3243 125.712ZM126.667 139.312C127.178 140.635 127.914 141.317 128.875 141.36V142C128.021 141.936 126.88 141.904 125.451 141.904C123.616 141.904 122.25 141.936 121.354 142V141.36C122.165 141.317 122.741 141.221 123.082 141.072C123.445 140.901 123.627 140.603 123.627 140.176C123.627 139.813 123.498 139.312 123.242 138.672L121.29 133.424H113.546L112.234 136.816C111.808 137.968 111.594 138.843 111.594 139.44C111.594 140.101 111.818 140.581 112.266 140.88C112.736 141.179 113.44 141.339 114.378 141.36V142C113.162 141.936 111.936 141.904 110.698 141.904C109.738 141.904 108.938 141.936 108.298 142V141.36C109.365 141.104 110.208 140.176 110.826 138.576L118.346 119.184H118.858L126.667 139.312ZM121.035 132.784L117.45 123.216L113.802 132.784H121.035ZM140.839 125.072C141.692 125.072 142.385 125.317 142.919 125.808C143.473 126.299 143.751 126.896 143.751 127.6C143.751 128.155 143.58 128.635 143.239 129.04C142.919 129.424 142.481 129.616 141.927 129.616C141.457 129.616 141.052 129.467 140.711 129.168C140.391 128.869 140.231 128.464 140.231 127.952C140.231 127.248 140.593 126.672 141.319 126.224C141.169 126.011 140.945 125.904 140.647 125.904C139.815 125.904 139.057 126.235 138.375 126.896C137.692 127.536 137.159 128.325 136.775 129.264C136.391 130.203 136.199 131.088 136.199 131.92V138.704C136.199 139.685 136.476 140.368 137.031 140.752C137.607 141.136 138.46 141.328 139.591 141.328V142L138.823 141.968C136.647 141.904 135.26 141.872 134.663 141.872C134.108 141.872 132.849 141.915 130.887 142V141.328C131.783 141.328 132.412 141.168 132.775 140.848C133.137 140.507 133.319 139.899 133.319 139.024V129.008C133.319 128.027 133.137 127.312 132.775 126.864C132.412 126.416 131.783 126.192 130.887 126.192V125.52C131.569 125.584 132.231 125.616 132.871 125.616C134.215 125.616 135.324 125.467 136.199 125.168V129.168C136.583 128.101 137.191 127.152 138.023 126.32C138.876 125.488 139.815 125.072 140.839 125.072ZM153.792 125.072C155.221 125.072 156.458 125.413 157.504 126.096C158.506 126.757 159.008 127.579 159.008 128.56C159.008 129.115 158.848 129.552 158.528 129.872C158.208 130.192 157.802 130.352 157.312 130.352C156.821 130.352 156.405 130.213 156.064 129.936C155.722 129.637 155.552 129.243 155.552 128.752C155.552 128.304 155.68 127.931 155.936 127.632C156.192 127.312 156.512 127.099 156.896 126.992C156.682 126.608 156.298 126.288 155.744 126.032C155.21 125.776 154.634 125.648 154.016 125.648C153.226 125.648 152.49 125.904 151.808 126.416C151.125 126.907 150.56 127.739 150.112 128.912C149.664 130.064 149.44 131.589 149.44 133.488C149.44 136.133 149.866 138.064 150.72 139.28C151.573 140.475 152.682 141.072 154.048 141.072C154.965 141.072 155.829 140.805 156.64 140.272C157.472 139.739 158.154 138.907 158.688 137.776L159.296 138C158.933 139.216 158.25 140.261 157.248 141.136C156.266 142.011 154.986 142.448 153.408 142.448C152.085 142.448 150.88 142.107 149.792 141.424C148.725 140.741 147.882 139.76 147.264 138.48C146.645 137.179 146.336 135.675 146.336 133.968C146.336 132.24 146.645 130.704 147.264 129.36C147.904 128.016 148.789 126.971 149.92 126.224C151.05 125.456 152.341 125.072 153.792 125.072ZM167.658 128.912C168.192 127.568 168.928 126.597 169.866 126C170.826 125.381 171.904 125.072 173.098 125.072C174.592 125.072 175.722 125.477 176.49 126.288C176.896 126.715 177.184 127.248 177.354 127.888C177.525 128.528 177.61 129.392 177.61 130.48V139.024C177.61 139.899 177.792 140.507 178.154 140.848C178.517 141.168 179.146 141.328 180.042 141.328V142C178.08 141.915 176.8 141.872 176.202 141.872C175.605 141.872 174.41 141.915 172.618 142V141.328C173.408 141.328 173.952 141.168 174.25 140.848C174.57 140.507 174.73 139.899 174.73 139.024V129.776C174.73 128.581 174.56 127.675 174.218 127.056C173.877 126.416 173.184 126.096 172.138 126.096C171.264 126.096 170.485 126.341 169.802 126.832C169.141 127.323 168.618 128.016 168.234 128.912C167.85 129.787 167.658 130.779 167.658 131.888V139.024C167.658 139.899 167.808 140.507 168.106 140.848C168.426 141.168 168.981 141.328 169.77 141.328V142C167.978 141.915 166.784 141.872 166.186 141.872C165.589 141.872 164.309 141.915 162.346 142V141.328C163.242 141.328 163.872 141.168 164.234 140.848C164.597 140.507 164.778 139.899 164.778 139.024V120.784C164.778 119.803 164.597 119.088 164.234 118.64C163.872 118.192 163.242 117.968 162.346 117.968V117.296C163.029 117.36 163.69 117.392 164.33 117.392C165.674 117.392 166.784 117.243 167.658 116.944V128.912Z" fill="#141414"></path></svg>